<svg width="53" height="51" viewBox="0 0 53 51" fill="none" xmlns="http://www.w3.org/2000/svg">
	<path d="M25.3149 2.24218C25.4244 2.01935 25.5936 1.83178 25.8034 1.70063C26.0132 1.56949 26.2553 1.5 26.5022 1.5C26.7492 1.5 26.9912 1.56949 27.2011 1.70063C27.4109 1.83178 27.5801 2.01935 27.6896 2.24218L33.4641 14.0181C33.8445 14.7932 34.4061 15.4638 35.1005 15.9723C35.795 16.4808 36.6017 16.812 37.4513 16.9376L50.3651 18.8403C50.6098 18.876 50.8397 18.9799 51.0288 19.1403C51.2178 19.3007 51.3586 19.5111 51.435 19.7478C51.5115 19.9846 51.5207 20.2381 51.4615 20.4798C51.4023 20.7215 51.2771 20.9417 51.1 21.1154L41.7609 30.2714C41.145 30.8757 40.6841 31.6216 40.4181 32.445C40.152 33.2683 40.0887 34.1445 40.2335 34.9979L42.4383 47.9341C42.4815 48.1804 42.4551 48.4339 42.3621 48.6657C42.269 48.8976 42.1132 49.0984 41.9122 49.2454C41.7113 49.3923 41.4733 49.4794 41.2256 49.4968C40.9778 49.5141 40.7302 49.461 40.511 49.3435L28.967 43.2328C28.2064 42.8307 27.3601 42.6206 26.501 42.6206C25.6419 42.6206 24.7956 42.8307 24.035 43.2328L12.4935 49.3435C12.2744 49.4603 12.027 49.5129 11.7797 49.4952C11.5324 49.4775 11.2949 49.3902 11.0944 49.2434C10.8938 49.0966 10.7382 48.896 10.6453 48.6646C10.5524 48.4331 10.5258 48.18 10.5687 47.9341L12.771 35.0005C12.9165 34.1466 12.8534 33.2699 12.5873 32.446C12.3213 31.6222 11.8601 30.8759 11.2436 30.2714L1.90446 21.118C1.72596 20.9444 1.59947 20.7238 1.5394 20.4814C1.47933 20.239 1.48809 19.9844 1.56469 19.7468C1.64129 19.5091 1.78264 19.2979 1.97265 19.1372C2.16266 18.9765 2.39368 18.8727 2.6394 18.8378L15.5507 16.9376C16.4013 16.813 17.2091 16.4822 17.9045 15.9736C18.5999 15.4651 19.1622 14.794 19.5429 14.0181L25.3149 2.24218Z" stroke="black" stroke-width="3" stroke-linecap="round" stroke-linejoin="round"/>
</svg>
